{
	"patcher" : 	{
		"fileversion" : 1,
		"appversion" : 		{
			"major" : 7,
			"minor" : 2,
			"revision" : 3,
			"architecture" : "x64",
			"modernui" : 1
		}
,
		"rect" : [ 571.0, 681.0, 470.0, 350.0 ],
		"bglocked" : 0,
		"openinpresentation" : 0,
		"default_fontsize" : 12.0,
		"default_fontface" : 0,
		"default_fontname" : "Arial",
		"gridonopen" : 1,
		"gridsize" : [ 15.0, 15.0 ],
		"gridsnaponopen" : 1,
		"objectsnaponopen" : 1,
		"statusbarvisible" : 2,
		"toolbarvisible" : 1,
		"lefttoolbarpinned" : 0,
		"toptoolbarpinned" : 0,
		"righttoolbarpinned" : 0,
		"bottomtoolbarpinned" : 0,
		"toolbars_unpinned_last_save" : 0,
		"tallnewobj" : 0,
		"boxanimatetime" : 200,
		"enablehscroll" : 1,
		"enablevscroll" : 1,
		"devicewidth" : 0.0,
		"description" : "",
		"digest" : "",
		"tags" : "",
		"style" : "",
		"subpatcher_template" : "",
		"boxes" : [ 			{
				"box" : 				{
					"fontname" : "Source Code Pro ExtraLight",
					"fontsize" : 10.0,
					"id" : "obj-1",
					"maxclass" : "newobj",
					"numinlets" : 1,
					"numoutlets" : 0,
					"patching_rect" : [ 286.0, 209.333008, 143.0, 21.0 ],
					"style" : "",
					"text" : "print set_ip_ports_it2"
				}

			}
, 			{
				"box" : 				{
					"fontname" : "Source Code Pro ExtraLight",
					"fontsize" : 10.0,
					"id" : "obj-20",
					"maxclass" : "comment",
					"numinlets" : 1,
					"numoutlets" : 0,
					"patching_rect" : [ 218.0, 12.0, 89.0, 19.0 ],
					"style" : "",
					"text" : "set udp ports"
				}

			}
, 			{
				"box" : 				{
					"fontname" : "Source Code Pro ExtraLight",
					"fontsize" : 10.0,
					"id" : "obj-18",
					"maxclass" : "newobj",
					"numinlets" : 2,
					"numoutlets" : 2,
					"outlettype" : [ "", "" ],
					"patching_rect" : [ 253.0, 47.0, 161.0, 21.0 ],
					"style" : "",
					"text" : "combine IT_ 1 @triggers 1"
				}

			}
, 			{
				"box" : 				{
					"fontname" : "Source Code Pro ExtraLight",
					"fontsize" : 10.0,
					"id" : "obj-17",
					"maxclass" : "newobj",
					"numinlets" : 1,
					"numoutlets" : 0,
					"patching_rect" : [ 253.0, 75.0, 53.0, 21.0 ],
					"style" : "",
					"text" : "s it_id"
				}

			}
, 			{
				"box" : 				{
					"fontname" : "Source Code Pro ExtraLight",
					"fontsize" : 10.0,
					"id" : "obj-16",
					"maxclass" : "newobj",
					"numinlets" : 2,
					"numoutlets" : 1,
					"outlettype" : [ "int" ],
					"patching_rect" : [ 10.0, 170.333008, 47.0, 21.0 ],
					"style" : "",
					"text" : "* 1000"
				}

			}
, 			{
				"box" : 				{
					"fontname" : "Source Code Pro ExtraLight",
					"fontsize" : 10.0,
					"id" : "obj-15",
					"maxclass" : "newobj",
					"numinlets" : 2,
					"numoutlets" : 1,
					"outlettype" : [ "bang" ],
					"patching_rect" : [ 10.0, 209.333008, 29.5, 21.0 ],
					"style" : "",
					"text" : "del"
				}

			}
, 			{
				"box" : 				{
					"fontname" : "Source Code Pro ExtraLight",
					"fontsize" : 10.0,
					"id" : "obj-14",
					"maxclass" : "message",
					"numinlets" : 2,
					"numoutlets" : 1,
					"outlettype" : [ "" ],
					"patching_rect" : [ 10.0, 248.333008, 53.0, 21.0 ],
					"style" : "",
					"text" : "dispose"
				}

			}
, 			{
				"box" : 				{
					"fontname" : "Source Code Pro ExtraLight",
					"fontsize" : 10.0,
					"id" : "obj-12",
					"linecount" : 4,
					"maxclass" : "message",
					"numinlets" : 2,
					"numoutlets" : 1,
					"outlettype" : [ "" ],
					"patching_rect" : [ 119.0, 242.333008, 185.0, 59.0 ],
					"presentation" : 1,
					"presentation_linecount" : 4,
					"presentation_rect" : [ 210.0, 283.333008, 186.0, 59.0 ],
					"style" : "",
					"text" : ";\rmax_to_om_s_port $1;\rom_to_max_r_port $2;\rom_to_max_antescofo_r_port $3"
				}

			}
, 			{
				"box" : 				{
					"fontname" : "Source Code Pro ExtraLight",
					"fontsize" : 10.0,
					"id" : "obj-10",
					"maxclass" : "newobj",
					"numinlets" : 1,
					"numoutlets" : 1,
					"outlettype" : [ "" ],
					"patching_rect" : [ 119.0, 12.0, 71.0, 21.0 ],
					"style" : "",
					"text" : "loadmess 2"
				}

			}
, 			{
				"box" : 				{
					"fontname" : "Source Code Pro ExtraLight",
					"fontsize" : 10.0,
					"id" : "obj-9",
					"maxclass" : "message",
					"numinlets" : 2,
					"numoutlets" : 1,
					"outlettype" : [ "" ],
					"patching_rect" : [ 155.0, 209.333008, 95.0, 21.0 ],
					"style" : "",
					"text" : "7513 7514 7515"
				}

			}
, 			{
				"box" : 				{
					"fontname" : "Source Code Pro ExtraLight",
					"fontsize" : 10.0,
					"id" : "obj-7",
					"maxclass" : "newobj",
					"numinlets" : 3,
					"numoutlets" : 1,
					"outlettype" : [ "" ],
					"patching_rect" : [ 119.0, 175.0, 41.0, 21.0 ],
					"style" : "",
					"text" : "0 0 0"
				}

			}
, 			{
				"box" : 				{
					"fontname" : "Source Code Pro ExtraLight",
					"fontsize" : 10.0,
					"id" : "obj-6",
					"maxclass" : "newobj",
					"numinlets" : 2,
					"numoutlets" : 1,
					"outlettype" : [ "int" ],
					"patching_rect" : [ 233.0, 139.0, 47.0, 21.0 ],
					"style" : "",
					"text" : "+ 7405"
				}

			}
, 			{
				"box" : 				{
					"fontname" : "Source Code Pro ExtraLight",
					"fontsize" : 10.0,
					"id" : "obj-5",
					"maxclass" : "newobj",
					"numinlets" : 2,
					"numoutlets" : 1,
					"outlettype" : [ "int" ],
					"patching_rect" : [ 177.0, 139.0, 47.0, 21.0 ],
					"style" : "",
					"text" : "+ 7404"
				}

			}
, 			{
				"box" : 				{
					"fontname" : "Source Code Pro ExtraLight",
					"fontsize" : 10.0,
					"id" : "obj-4",
					"maxclass" : "newobj",
					"numinlets" : 2,
					"numoutlets" : 1,
					"outlettype" : [ "int" ],
					"patching_rect" : [ 119.0, 139.0, 47.0, 21.0 ],
					"style" : "",
					"text" : "+ 7403"
				}

			}
, 			{
				"box" : 				{
					"fontname" : "Source Code Pro ExtraLight",
					"fontsize" : 10.0,
					"id" : "obj-3",
					"maxclass" : "newobj",
					"numinlets" : 2,
					"numoutlets" : 1,
					"outlettype" : [ "int" ],
					"patching_rect" : [ 119.0, 75.0, 35.0, 21.0 ],
					"style" : "",
					"text" : "* 10"
				}

			}
, 			{
				"box" : 				{
					"fontname" : "Source Code Pro ExtraLight",
					"fontsize" : 10.0,
					"id" : "obj-71",
					"maxclass" : "newobj",
					"numinlets" : 1,
					"numoutlets" : 2,
					"outlettype" : [ "", "" ],
					"patching_rect" : [ 11.0, 283.333008, 77.0, 21.0 ],
					"save" : [ "#N", "thispatcher", ";", "#Q", "end", ";" ],
					"style" : "",
					"text" : "thispatcher"
				}

			}
 ],
		"lines" : [ 			{
				"patchline" : 				{
					"destination" : [ "obj-16", 0 ],
					"disabled" : 0,
					"hidden" : 0,
					"source" : [ "obj-10", 0 ]
				}

			}
, 			{
				"patchline" : 				{
					"destination" : [ "obj-18", 1 ],
					"disabled" : 0,
					"hidden" : 0,
					"source" : [ "obj-10", 0 ]
				}

			}
, 			{
				"patchline" : 				{
					"destination" : [ "obj-3", 0 ],
					"disabled" : 0,
					"hidden" : 0,
					"source" : [ "obj-10", 0 ]
				}

			}
, 			{
				"patchline" : 				{
					"destination" : [ "obj-71", 0 ],
					"disabled" : 0,
					"hidden" : 0,
					"source" : [ "obj-14", 0 ]
				}

			}
, 			{
				"patchline" : 				{
					"destination" : [ "obj-14", 0 ],
					"disabled" : 0,
					"hidden" : 0,
					"source" : [ "obj-15", 0 ]
				}

			}
, 			{
				"patchline" : 				{
					"destination" : [ "obj-15", 0 ],
					"disabled" : 0,
					"hidden" : 0,
					"source" : [ "obj-16", 0 ]
				}

			}
, 			{
				"patchline" : 				{
					"destination" : [ "obj-17", 0 ],
					"disabled" : 0,
					"hidden" : 0,
					"source" : [ "obj-18", 0 ]
				}

			}
, 			{
				"patchline" : 				{
					"destination" : [ "obj-4", 0 ],
					"disabled" : 0,
					"hidden" : 0,
					"source" : [ "obj-3", 0 ]
				}

			}
, 			{
				"patchline" : 				{
					"destination" : [ "obj-5", 0 ],
					"disabled" : 0,
					"hidden" : 0,
					"source" : [ "obj-3", 0 ]
				}

			}
, 			{
				"patchline" : 				{
					"destination" : [ "obj-6", 0 ],
					"disabled" : 0,
					"hidden" : 0,
					"source" : [ "obj-3", 0 ]
				}

			}
, 			{
				"patchline" : 				{
					"destination" : [ "obj-7", 0 ],
					"disabled" : 0,
					"hidden" : 0,
					"source" : [ "obj-4", 0 ]
				}

			}
, 			{
				"patchline" : 				{
					"destination" : [ "obj-7", 1 ],
					"disabled" : 0,
					"hidden" : 0,
					"source" : [ "obj-5", 0 ]
				}

			}
, 			{
				"patchline" : 				{
					"destination" : [ "obj-7", 2 ],
					"disabled" : 0,
					"hidden" : 0,
					"source" : [ "obj-6", 0 ]
				}

			}
, 			{
				"patchline" : 				{
					"destination" : [ "obj-1", 0 ],
					"disabled" : 0,
					"hidden" : 0,
					"source" : [ "obj-7", 0 ]
				}

			}
, 			{
				"patchline" : 				{
					"destination" : [ "obj-12", 0 ],
					"disabled" : 0,
					"hidden" : 0,
					"source" : [ "obj-7", 0 ]
				}

			}
, 			{
				"patchline" : 				{
					"destination" : [ "obj-9", 1 ],
					"disabled" : 0,
					"hidden" : 0,
					"source" : [ "obj-7", 0 ]
				}

			}
 ],
		"dependency_cache" : [  ],
		"autosave" : 0
	}

}
